<?xml version="1.0" standalone="no"?>
<!DOCTYPE svg PUBLIC "-//W3C//DTD SVG 20010904//EN"
 "http://www.w3.org/TR/2001/REC-SVG-20010904/DTD/svg10.dtd">
<svg version="1.0" xmlns="http://www.w3.org/2000/svg"
 width="409.000000pt" height="362.000000pt" viewBox="0 0 409.000000 362.000000"
 preserveAspectRatio="xMidYMid meet">
<metadata>
Created by potrace 1.15, written by Peter Selinger 2001-2017
</metadata>
<g transform="translate(0.000000,362.000000) scale(0.100000,-0.100000)"
fill="#000000" stroke="none">
<path d="M3618 3428 c77 -86 127 -175 152 -273 19 -76 20 -111 20 -1234 0
-1289 3 -1231 -70 -1377 -67 -137 -202 -256 -343 -303 -116 -40 -205 -42
-1407 -39 l-1155 3 -80 27 c-44 15 -103 41 -130 57 -118 68 -223 196 -273 331
l-27 75 -3 1193 c-3 1324 -6 1260 64 1392 20 38 51 86 70 108 19 22 34 43 34
47 0 18 -93 -107 -119 -161 -70 -140 -66 -59 -66 -1379 0 -1336 -5 -1244 75
-1392 21 -39 36 -74 32 -77 -3 -3 -25 -6 -49 -6 -32 0 -43 -4 -43 -15 0 -9 -9
-15 -25 -15 -56 0 -179 -32 -196 -51 -9 -10 -21 -19 -28 -19 -6 0 -11 -4 -11
-10 0 -5 -9 -10 -20 -10 -18 0 -20 -7 -20 -55 0 -30 5 -55 10 -55 6 0 10 -7
10 -15 0 -9 17 -20 45 -27 25 -7 54 -19 63 -28 22 -20 89 -40 136 -40 20 0 36
-4 36 -9 0 -5 43 -12 96 -16 69 -5 97 -12 101 -22 5 -12 32 -13 170 -7 129 5
167 4 173 -6 10 -16 1784 -23 2110 -8 118 5 280 10 360 10 102 1 148 5 155 13
7 8 59 15 155 19 79 4 147 11 150 15 3 5 34 12 70 16 36 4 75 13 87 21 12 8
30 14 40 14 20 1 53 23 53 36 1 14 48 64 60 64 5 0 10 18 10 40 0 29 -4 40
-15 40 -8 0 -15 7 -15 16 0 8 -6 22 -14 30 -15 15 -138 44 -187 44 -18 0 -29
5 -29 14 0 9 -20 15 -69 20 l-68 7 38 77 c73 145 69 64 69 1384 0 818 -3 1204
-11 1240 -20 98 -83 212 -161 291 l-71 72 61 -67z"/>
<path d="M1444 2827 c-369 -172 -672 -316 -674 -320 -1 -4 195 -363 435 -796
l438 -789 40 18 c23 10 44 17 48 14 4 -2 12 -25 18 -51 7 -27 19 -72 28 -101
16 -56 19 -58 77 -36 13 5 16 -3 16 -50 l0 -56 690 0 690 0 0 63 c0 34 9 384
20 777 17 631 17 718 4 737 -8 13 -18 23 -23 23 -12 0 -18 -141 -36 -790 -8
-300 -18 -596 -21 -657 l-6 -113 -634 0 -634 0 -4 23 c-4 18 -21 549 -28 852
-1 40 -3 54 -5 33 l-4 -38 -123 0 -124 0 -17 35 c-31 67 -265 817 -265 852 0
19 -1 19 460 159 228 70 423 133 433 142 9 8 17 21 17 29 0 11 5 11 29 -1 26
-14 40 -11 250 52 202 61 221 68 221 89 0 12 -4 25 -10 28 -9 6 -433 -117
-471 -136 -13 -7 -24 13 -63 109 -36 93 -50 118 -66 119 -11 1 -20 0 -20 -3 0
-2 20 -55 45 -116 25 -62 45 -115 45 -118 0 -4 -207 -69 -460 -146 -292 -88
-460 -144 -460 -152 0 -7 45 -171 99 -365 181 -643 321 -1144 321 -1149 0 -7
-60 -32 -64 -27 -1 2 -169 312 -371 689 -202 377 -372 690 -378 695 -5 6 18
-45 52 -112 34 -68 59 -123 57 -123 -2 0 -48 75 -102 166 -95 162 -97 166 -78
184 30 31 1268 620 1279 609 5 -5 17 -9 26 -9 15 0 16 4 6 35 -6 19 -15 35
-21 35 -6 -1 -313 -141 -682 -313z"/>
<path d="M2995 2554 c-11 -2 -46 -6 -77 -9 -44 -5 -58 -10 -58 -22 0 -14 12
-15 94 -9 110 7 118 3 106 -64 -19 -112 -20 -138 -3 -144 8 -4 21 -2 28 4 16
13 26 126 15 156 -18 45 17 14 92 -83 40 -53 78 -106 85 -117 11 -18 12 -19
13 -3 0 9 -48 80 -107 157 -115 148 -111 146 -188 134z"/>
<path d="M2470 2209 c-256 -15 -473 -28 -483 -28 -13 -1 -17 -7 -15 -23 3 -20
8 -23 43 -21 22 2 243 14 490 28 603 33 595 32 595 56 0 17 -7 19 -82 18 -46
-1 -292 -14 -548 -30z"/>
<path d="M2163 2013 l-173 -3 0 -25 0 -25 253 5 c339 8 377 11 377 36 0 21 34
20 -457 12z"/>
<path d="M2570 1794 c-261 -12 -496 -23 -522 -23 -41 -1 -48 -4 -48 -20 0 -11
3 -22 8 -24 4 -3 241 6 526 19 358 17 522 28 527 36 8 12 1 39 -10 37 -3 -1
-220 -12 -481 -25z"/>
<path d="M2480 1539 c-206 -3 -394 -7 -417 -8 -38 -1 -43 -4 -43 -24 l0 -24
173 4 c94 1 333 6 530 9 l357 6 0 24 c0 24 0 24 -112 22 -62 -1 -282 -5 -488
-9z"/>
</g>
</svg>
