<?xml version="1.0" standalone="no"?>
<!DOCTYPE svg PUBLIC "-//W3C//DTD SVG 20010904//EN"
 "http://www.w3.org/TR/2001/REC-SVG-20010904/DTD/svg10.dtd">
<svg version="1.0" xmlns="http://www.w3.org/2000/svg"
 width="246.000000pt" height="145.000000pt" viewBox="0 0 246.000000 145.000000"
 preserveAspectRatio="xMidYMid meet">
<metadata>
Created by potrace 1.15, written by Peter Selinger 2001-2017
</metadata>
<g transform="translate(0.000000,145.000000) scale(0.100000,-0.100000)"
fill="#000000" stroke="none">
<path d="M401 1036 c-50 -18 -108 -71 -121 -112 -7 -20 -10 -60 -8 -89 8 -99
74 -153 238 -195 106 -27 138 -44 146 -76 13 -52 -49 -104 -124 -104 -68 0
-108 24 -134 81 l-22 48 -66 -6 c-36 -3 -66 -7 -68 -8 -2 -2 2 -23 8 -46 18
-69 56 -126 103 -153 86 -51 253 -54 345 -7 73 37 117 129 105 219 -13 95 -79
148 -235 190 -122 33 -158 52 -158 86 0 37 34 59 98 64 51 4 62 1 89 -22 17
-14 34 -37 37 -51 5 -21 12 -25 44 -25 20 0 54 3 74 6 35 6 37 8 31 38 -14 80
-73 144 -152 166 -49 13 -188 11 -230 -4z"/>
<path d="M1131 1018 c-43 -110 -251 -658 -251 -663 0 -3 35 -5 78 -5 l77 0 26
73 25 72 136 3 135 3 28 -76 27 -75 79 0 c43 0 79 1 79 3 0 1 -61 155 -134
342 l-135 340 -81 3 c-76 3 -81 2 -89 -20z m135 -278 l42 -110 -84 0 c-46 0
-84 3 -84 8 0 15 73 212 79 212 3 0 25 -49 47 -110z"/>
<path d="M1600 1033 c0 -4 53 -160 117 -345 l118 -338 81 0 82 0 57 163 c31
89 86 244 121 345 l63 182 -77 0 -77 0 -74 -222 c-41 -123 -78 -234 -84 -248
-8 -22 -20 8 -91 220 l-83 245 -76 3 c-42 2 -77 -1 -77 -5z"/>
</g>
</svg>
