<?xml version="1.0" standalone="no"?>
<!DOCTYPE svg PUBLIC "-//W3C//DTD SVG 20010904//EN"
 "http://www.w3.org/TR/2001/REC-SVG-20010904/DTD/svg10.dtd">
<svg version="1.0" xmlns="http://www.w3.org/2000/svg"
 width="1023.000000pt" height="1023.000000pt" viewBox="0 0 1023.000000 1023.000000"
 preserveAspectRatio="xMidYMid meet">
<metadata>
Created by potrace 1.11, written by Peter Selinger 2001-2013
</metadata>
<g transform="translate(0.000000,1023.000000) scale(0.100000,-0.100000)"
fill="#000000" stroke="none">
<path d="M1805 10210 c-338 -71 -611 -286 -755 -593 -34 -71 -53 -129 -87
-262 -4 -16 -9 -1912 -10 -4211 -3 -3741 -1 -4190 12 -4265 21 -114 49 -198
101 -302 118 -238 345 -437 596 -521 176 -59 -79 -56 3468 -53 1790 2 3266 6
3280 9 14 4 37 9 52 12 63 14 201 69 269 107 292 165 487 450 535 784 9 60 11
6912 2 6970 -4 28 -10 64 -12 80 -8 48 -61 190 -76 205 -3 3 -11 15 -17 28 -7
12 -19 32 -25 45 -7 12 -15 24 -18 27 -3 3 -24 30 -47 60 -23 31 -214 224
-424 430 -968 949 -1102 1081 -1189 1163 -114 108 -275 203 -425 251 -180 58
-49 55 -2700 55 -2352 0 -2443 -1 -2530 -19z"/>
</g>
</svg>
